<svg width="110" height="101" viewBox="0 0 110 101" fill="none" xmlns="http://www.w3.org/2000/svg">
<g id="noun-boxes-52347 1">
<g id="Group">
<path id="Vector" d="M109.617 90.9415V88.6956H0.249084V90.9415H5.87173V98.3335H0.249084V100.579H109.617V98.3335H103.994V90.9415H109.617ZM14.4947 90.9415H50.6228V98.3335H14.4947V90.9415ZM59.2432 98.3347V90.9428H95.3713V98.3347H59.2432Z" fill="#539FE4"></path>
<path id="Vector_2" d="M0.249084 44.9006V87.0101H48.6074V44.9006H0.249084ZM28.7391 85.8877H20.1174V74.4696L20.7736 73.8864L21.7585 74.4696L22.3199 73.4899L23.0229 74.0972L23.7259 72.9723L24.4289 73.4887L25.2722 72.9723L25.9752 73.4887L26.9589 73.043V74.4684L28.7391 74.096V85.8877ZM28.7391 57.4398L28.0841 58.0256L27.0992 57.4398L26.5378 58.422L25.8348 57.8135L25.1318 58.9371L24.4289 58.4233L23.5855 58.9371L22.8825 58.4233L21.8989 58.8677V57.441L20.1186 57.8147V46.0243H28.7403V57.4398H28.7391Z" fill="#8DC5F9"></path>
<path id="Vector_3" d="M50.5747 44.9006V87.0101H109.617V44.9006H50.5747ZM104.619 77.559V84.9522H100.807V77.559H97.9746L102.712 70.8097L107.45 77.559H104.619Z" fill="#8DC5F9"></path>
<path id="Vector_4" d="M0.249084 1.01245V43.1231H59.2913V1.01245H0.249084ZM13.7829 18.6496C13.7829 19.2455 11.7472 19.7277 9.23621 19.7277C6.72391 19.7277 4.68954 19.2455 4.68954 18.6496C4.68954 18.0966 6.43943 17.6421 8.69506 17.579V11.4155C6.06518 11.0152 4.01311 7.72516 4.01311 3.72556H9.8861L9.48908 5.91979L9.23621 7.31738L10.2603 6.49549C10.4361 6.35409 10.6131 6.21395 10.7914 6.07508L9.96828 9.2995L11.7624 5.22289L12.1278 4.39469L11.2529 4.84035C11.1113 4.91231 10.9697 4.98554 10.8281 5.05876L11.3047 3.72683H14.4568C14.4568 7.72643 12.4047 11.0152 9.77357 11.4167V17.5802C12.0317 17.6421 13.7829 18.0966 13.7829 18.6496ZM53.5751 33.8577V41.2508H49.7643V33.8577H46.9308L51.6697 27.1083L56.4098 33.8577H53.5751Z" fill="#8DC5F9"></path>
</g>
</g>
</svg>
