<svg width="23" height="30" viewBox="0 0 23 30" fill="none" xmlns="http://www.w3.org/2000/svg">
<g id="noun-calculator-1115604 1" clip-path="url('#clip0_201_293')">
<g id="Group">
<g id="Group_2">
<path id="Vector" d="M20.4444 30H2.55556C1.14644 30 0 28.8788 0 27.5V2.5C0 1.12122 1.14644 0 2.55556 0H20.4444C21.8536 0 23 1.12122 23 2.5V27.5C23 28.8788 21.8536 30 20.4444 30ZM2.55556 1.25C1.85084 1.25 1.27778 1.81091 1.27778 2.5V27.5C1.27778 28.1891 1.85084 28.75 2.55556 28.75H20.4444C21.1492 28.75 21.7222 28.1891 21.7222 27.5V2.5C21.7222 1.81091 21.1492 1.25 20.4444 1.25H2.55556Z" fill="white"></path>
</g>
<g id="Group_3">
<path id="Vector_2" d="M18.5286 10H4.47309C3.76838 10 3.19531 9.43909 3.19531 8.75V4.375C3.19531 3.68591 3.76838 3.125 4.47309 3.125H18.5286C19.2334 3.125 19.8064 3.68591 19.8064 4.375V8.75C19.8064 9.43909 19.2334 10 18.5286 10ZM4.47309 4.375V8.75H18.5293L18.5286 4.375H4.47309Z" fill="white"></path>
</g>
<g id="Group_4">
<path id="Vector_3" d="M5.75065 15.625C4.69374 15.625 3.83398 14.7839 3.83398 13.75C3.83398 12.7161 4.69374 11.875 5.75065 11.875C6.80756 11.875 7.66732 12.7161 7.66732 13.75C7.66732 14.7839 6.80756 15.625 5.75065 15.625ZM5.75065 13.125C5.39845 13.125 5.11176 13.4052 5.11176 13.75C5.11176 14.0948 5.39845 14.375 5.75065 14.375C6.10285 14.375 6.38954 14.0948 6.38954 13.75C6.38954 13.4052 6.10285 13.125 5.75065 13.125Z" fill="white"></path>
</g>
<g id="Group_5">
<path id="Vector_4" d="M17.2507 15.625C16.1937 15.625 15.334 14.7839 15.334 13.75C15.334 12.7161 16.1937 11.875 17.2507 11.875C18.3076 11.875 19.1673 12.7161 19.1673 13.75C19.1673 14.7839 18.3076 15.625 17.2507 15.625ZM17.2507 13.125C16.8985 13.125 16.6118 13.4052 16.6118 13.75C16.6118 14.0948 16.8985 14.375 17.2507 14.375C17.6029 14.375 17.8895 14.0948 17.8895 13.75C17.8895 13.4052 17.6029 13.125 17.2507 13.125Z" fill="white"></path>
</g>
<g id="Group_6">
<path id="Vector_5" d="M11.5007 15.625C10.4437 15.625 9.58398 14.7839 9.58398 13.75C9.58398 12.7161 10.4437 11.875 11.5007 11.875C12.5576 11.875 13.4173 12.7161 13.4173 13.75C13.4173 14.7839 12.5576 15.625 11.5007 15.625ZM11.5007 13.125C11.1485 13.125 10.8618 13.4052 10.8618 13.75C10.8618 14.0948 11.1485 14.375 11.5007 14.375C11.8529 14.375 12.1395 14.0948 12.1395 13.75C12.1395 13.4052 11.8529 13.125 11.5007 13.125Z" fill="white"></path>
</g>
<g id="Group_7">
<path id="Vector_6" d="M5.75065 21.25C4.69374 21.25 3.83398 20.4089 3.83398 19.375C3.83398 18.3411 4.69374 17.5 5.75065 17.5C6.80756 17.5 7.66732 18.3411 7.66732 19.375C7.66732 20.4089 6.80756 21.25 5.75065 21.25ZM5.75065 18.75C5.39845 18.75 5.11176 19.0302 5.11176 19.375C5.11176 19.7198 5.39845 20 5.75065 20C6.10285 20 6.38954 19.7198 6.38954 19.375C6.38954 19.0302 6.10285 18.75 5.75065 18.75Z" fill="white"></path>
</g>
<g id="Group_8">
<path id="Vector_7" d="M17.2507 21.25C16.1937 21.25 15.334 20.4089 15.334 19.375C15.334 18.3411 16.1937 17.5 17.2507 17.5C18.3076 17.5 19.1673 18.3411 19.1673 19.375C19.1673 20.4089 18.3076 21.25 17.2507 21.25ZM17.2507 18.75C16.8985 18.75 16.6118 19.0302 16.6118 19.375C16.6118 19.7198 16.8985 20 17.2507 20C17.6029 20 17.8895 19.7198 17.8895 19.375C17.8895 19.0302 17.6029 18.75 17.2507 18.75Z" fill="white"></path>
</g>
<g id="Group_9">
<path id="Vector_8" d="M11.5007 21.25C10.4437 21.25 9.58398 20.4089 9.58398 19.375C9.58398 18.3411 10.4437 17.5 11.5007 17.5C12.5576 17.5 13.4173 18.3411 13.4173 19.375C13.4173 20.4089 12.5576 21.25 11.5007 21.25ZM11.5007 18.75C11.1485 18.75 10.8618 19.0302 10.8618 19.375C10.8618 19.7198 11.1485 20 11.5007 20C11.8529 20 12.1395 19.7198 12.1395 19.375C12.1395 19.0302 11.8529 18.75 11.5007 18.75Z" fill="white"></path>
</g>
<g id="Group_10">
<path id="Vector_9" d="M5.75065 26.875C4.69374 26.875 3.83398 26.0339 3.83398 25C3.83398 23.9661 4.69374 23.125 5.75065 23.125C6.80756 23.125 7.66732 23.9661 7.66732 25C7.66732 26.0339 6.80756 26.875 5.75065 26.875ZM5.75065 24.375C5.39845 24.375 5.11176 24.6552 5.11176 25C5.11176 25.3448 5.39845 25.625 5.75065 25.625C6.10285 25.625 6.38954 25.3448 6.38954 25C6.38954 24.6552 6.10285 24.375 5.75065 24.375Z" fill="white"></path>
</g>
<g id="Group_11">
<path id="Vector_10" d="M17.2507 26.875C16.1937 26.875 15.334 26.0339 15.334 25C15.334 23.9661 16.1937 23.125 17.2507 23.125C18.3076 23.125 19.1673 23.9661 19.1673 25C19.1673 26.0339 18.3076 26.875 17.2507 26.875ZM17.2507 24.375C16.8985 24.375 16.6118 24.6552 16.6118 25C16.6118 25.3448 16.8985 25.625 17.2507 25.625C17.6029 25.625 17.8895 25.3448 17.8895 25C17.8895 24.6552 17.6029 24.375 17.2507 24.375Z" fill="white"></path>
</g>
<g id="Group_12">
<path id="Vector_11" d="M11.5007 26.875C10.4437 26.875 9.58398 26.0339 9.58398 25C9.58398 23.9661 10.4437 23.125 11.5007 23.125C12.5576 23.125 13.4173 23.9661 13.4173 25C13.4173 26.0339 12.5576 26.875 11.5007 26.875ZM11.5007 24.375C11.1485 24.375 10.8618 24.6552 10.8618 25C10.8618 25.3448 11.1485 25.625 11.5007 25.625C11.8529 25.625 12.1395 25.3448 12.1395 25C12.1395 24.6552 11.8529 24.375 11.5007 24.375Z" fill="white"></path>
</g>
</g>
</g>
<defs>
<clipPath id="clip0_201_293">
<rect width="23" height="30" fill="white"></rect>
</clipPath>
</defs>
</svg>
