<svg width="36" height="32" viewBox="0 0 36 32" fill="none" xmlns="http://www.w3.org/2000/svg">
<g id="noun-layers-1346016 1" clip-path="url('#clip0_201_347')">
<g id="Group">
<path id="Vector" d="M17.9167 1.00816C17.8878 1.01657 17.8601 1.02836 17.834 1.04329L1.21182 9.29329C1.14983 9.32473 1.09779 9.37256 1.06145 9.43149C1.02511 9.49043 1.00588 9.55818 1.00588 9.62728C1.00588 9.69638 1.02511 9.76413 1.06145 9.82306C1.09779 9.882 1.14983 9.92983 1.21182 9.96126L6.96111 12.8089L1.21182 15.6683C1.14983 15.6998 1.0978 15.7476 1.06146 15.8065C1.02513 15.8654 1.0059 15.9332 1.0059 16.0023C1.0059 16.0714 1.02513 16.1391 1.06146 16.1981C1.0978 16.257 1.14983 16.3048 1.21182 16.3363L6.96111 19.1839L1.21182 22.0433C1.14982 22.0747 1.09778 22.1226 1.06144 22.1815C1.02509 22.2405 1.00586 22.3082 1.00586 22.3773C1.00586 22.4464 1.02509 22.5142 1.06144 22.5731C1.09778 22.632 1.14982 22.6799 1.21182 22.7113L17.834 30.9613C17.8855 30.9862 17.9421 30.9991 17.9993 30.9991C18.0566 30.9991 18.1131 30.9862 18.1646 30.9613L34.7868 22.7113C34.8488 22.6799 34.9009 22.632 34.9372 22.5731C34.9735 22.5142 34.9928 22.4464 34.9928 22.3773C34.9928 22.3082 34.9735 22.2405 34.9372 22.1815C34.9009 22.1226 34.8488 22.0747 34.7868 22.0433L29.0375 19.1839L34.7868 16.3363C34.8488 16.3048 34.9008 16.257 34.9372 16.1981C34.9735 16.1391 34.9927 16.0714 34.9927 16.0023C34.9927 15.9332 34.9735 15.8654 34.9372 15.8065C34.9008 15.7476 34.8488 15.6998 34.7868 15.6683L29.0375 12.8089L34.7868 9.96126C34.8488 9.92983 34.9008 9.882 34.9372 9.82306C34.9735 9.76413 34.9928 9.69638 34.9928 9.62728C34.9928 9.55818 34.9735 9.49043 34.9372 9.43149C34.9008 9.37256 34.8488 9.32473 34.7868 9.29329L18.1646 1.04329C18.0884 1.00394 18.0009 0.99155 17.9167 1.00816ZM17.9993 1.79332L33.7833 9.63316L17.9993 17.4613L2.21531 9.63316L17.9993 1.79332ZM7.79932 13.2308L17.834 18.2113C17.8855 18.2362 17.9421 18.2491 17.9993 18.2491C18.0566 18.2491 18.1131 18.2362 18.1646 18.2113L28.1993 13.2308L33.7833 16.0082L17.9993 23.8363L2.21531 16.0082L7.79932 13.2308ZM7.79932 19.6059L17.834 24.5863C17.8855 24.6112 17.9421 24.6241 17.9993 24.6241C18.0566 24.6241 18.1131 24.6112 18.1646 24.5863L28.1993 19.6059L33.7833 22.3832L17.9993 30.2113L2.21531 22.3832L7.79932 19.6059Z" fill="white" stroke="white" stroke-width="0.5"></path>
</g>
</g>
<defs>
<clipPath id="clip0_201_347">
<rect width="36" height="32" fill="white"></rect>
</clipPath>
</defs>
</svg>
