<svg width="110" height="82" viewBox="0 0 110 82" fill="none" xmlns="http://www.w3.org/2000/svg">
<g clip-path="url('#clip0_43_1843')">
<path fill-rule="evenodd" clip-rule="evenodd" d="M108.588 8.48276L100.128 0H80.3818L85.2204 8.48276H108.588Z" fill="#8DC5F9"></path>
<path fill-rule="evenodd" clip-rule="evenodd" d="M69.1068 0H49.359L40.8988 8.48276H64.2682L69.1068 0Z" fill="#8DC5F9"></path>
<path fill-rule="evenodd" clip-rule="evenodd" d="M0 35.3462V72.1048H25.3846V43.8289V35.3462H8.46154H0Z" fill="#8DC5F9"></path>
<path fill-rule="evenodd" clip-rule="evenodd" d="M86.0256 11.3103V30.3173L74.745 25.4482L63.4629 30.3173V11.3103H39.4872V33.1251C41.6336 31.9588 43.8421 30.6878 46.0971 29.3842C46.5794 29.1057 47.8585 28.4596 49.3406 28.4596C50.8835 28.4596 52.0892 29.175 52.7365 30.4729C54.4754 33.9621 51.9538 37.3312 49.6537 39.5876H58.5256C61.2474 39.5876 63.4615 41.8072 63.4615 44.5359C63.4615 45.92 62.8932 47.1712 61.9765 48.0703C62.8932 48.9681 63.4615 50.2193 63.4615 51.6034C63.4615 52.9875 62.8932 54.2387 61.9765 55.1379C62.8932 56.0371 63.4615 57.2883 63.4615 58.6724C63.4615 60.0565 62.8932 61.3077 61.9765 62.2069C62.8932 63.106 63.4615 64.3572 63.4615 65.7413C63.4615 68.47 61.2474 70.6896 58.5256 70.6896H39.4872V82H110V11.3103H86.0256ZM105.769 77.7572H79.0576C78.2791 77.7572 77.6473 77.1252 77.6473 76.3434C77.6473 75.5615 78.2791 74.9296 79.0576 74.9296H83.2051V59.9632L80.6765 62.4981C80.4015 62.7738 80.0405 62.9123 79.6795 62.9123C79.3185 62.9123 78.9574 62.7738 78.6824 62.4981C78.131 61.9453 78.131 61.0518 78.6824 60.499L83.6183 55.5507C84.1697 54.9979 85.061 54.9979 85.6124 55.5507L90.5469 60.499C91.0983 61.0518 91.0983 61.9453 90.5469 62.4981C90.2719 62.7738 89.9109 62.9123 89.5499 62.9123C89.1889 62.9123 88.8278 62.7738 88.5528 62.4981L86.0256 59.9632V74.9296H98.7179V59.9632L96.1908 62.4981C95.9158 62.7738 95.5547 62.9123 95.1937 62.9123C94.8327 62.9123 94.4717 62.7738 94.1967 62.4981C93.6453 61.9453 93.6453 61.0518 94.1967 60.499L99.1312 55.5507C99.4062 55.275 99.7672 55.1365 100.13 55.1365C100.491 55.1365 100.852 55.275 101.127 55.5507L106.061 60.499C106.613 61.0518 106.613 61.9453 106.061 62.4981C105.786 62.7738 105.425 62.9123 105.064 62.9123C104.703 62.9123 104.342 62.7738 104.067 62.4981L101.538 59.9632V74.9296H105.769C106.549 74.9296 107.179 75.5615 107.179 76.3434C107.179 77.1252 106.549 77.7572 105.769 77.7572Z" fill="#8DC5F9"></path>
<path fill-rule="evenodd" clip-rule="evenodd" d="M36.6667 21.1716C35.7035 21.518 34.7642 21.805 33.8462 22.0312V35.926C34.7685 35.5216 35.7063 35.0848 36.6667 34.6013V21.1716Z" fill="#539FE4"></path>
<path fill-rule="evenodd" clip-rule="evenodd" d="M60.641 65.7415C60.641 64.5723 59.6919 63.6208 58.5257 63.6208V63.5204C58.3705 63.5784 58.2055 63.6194 58.0292 63.6194H45.8333C45.0549 63.6194 44.4231 62.9874 44.4231 62.2056C44.4231 61.4238 45.0549 60.7918 45.8333 60.7918H58.0292C58.2055 60.7918 58.3691 60.8328 58.5257 60.8908V60.7932C59.6919 60.7932 60.641 59.8417 60.641 58.6725C60.641 57.5047 59.6948 56.5547 58.5299 56.5518C58.5285 56.5518 58.5271 56.5532 58.5257 56.5532H46.3312C45.5527 56.5532 44.9209 55.9213 44.9209 55.1395C44.9209 54.3576 45.5527 53.7257 46.3312 53.7257H58.5257C59.6919 53.7257 60.641 52.7728 60.641 51.6036C60.641 50.4344 59.6919 49.4829 58.5257 49.4829H46.3312C45.5527 49.4829 44.9209 48.8509 44.9209 48.0691C44.9209 47.2872 45.5527 46.6553 46.3312 46.6553H58.5257C59.6919 46.6553 60.641 45.7038 60.641 44.5346C60.641 43.3654 59.6919 42.4139 58.5257 42.4139H42.5531L44.959 40.0006C45.1324 39.8267 45.4286 39.5722 45.8023 39.2541C47.5172 37.7965 51.5322 34.3807 50.2136 31.7369C50.105 31.5192 49.94 31.2874 49.3407 31.2874C48.8005 31.2874 48.0799 31.5022 47.5059 31.8345C40.2473 36.0377 33.911 39.7051 28.2051 40.7951V67.8622H58.5257C59.6919 67.8622 60.641 66.9107 60.641 65.7415Z" fill="#539FE4"></path>
<path fill-rule="evenodd" clip-rule="evenodd" d="M28.2051 37.8938C29.1119 37.6874 30.0596 37.3848 31.0257 37.0413V18.3806H8.46155V32.5185H28.2051V35.3461V37.8938Z" fill="#8DC5F9"></path>
</g>
<defs>
<clipPath id="clip0_43_1843">
<rect width="110" height="82" fill="white"></rect>
</clipPath>
</defs>
</svg>
