<svg width="19" height="24" viewBox="0 0 19 24" fill="none" xmlns="http://www.w3.org/2000/svg">
<g id="noun-pdf-3912938 1" clip-path="url('#clip0_192_555')">
<g id="Group">
<g id="Group_2">
<path id="Vector" d="M7.64011 15.6367C7.47149 15.5247 7.29178 15.4688 7.0994 15.4688H5.8359C5.73932 15.4688 5.65857 15.5015 5.59445 15.5671C5.52953 15.6327 5.49707 15.7136 5.49707 15.8104V19.0471C5.49707 19.1439 5.52715 19.2256 5.58574 19.2904C5.64432 19.3552 5.72032 19.3887 5.81295 19.3887C5.90874 19.3887 5.98632 19.356 6.0457 19.2904C6.10428 19.2248 6.13436 19.1439 6.13436 19.0471V17.9887H7.09861C7.29019 17.9887 7.4707 17.932 7.63932 17.8184C7.80715 17.704 7.94332 17.5519 8.04703 17.3615C8.14995 17.1711 8.2014 16.9607 8.2014 16.7287C8.2014 16.4935 8.14995 16.2808 8.04703 16.0904C7.94411 15.9 7.80795 15.7495 7.64011 15.6367ZM7.47149 17.0287C7.42715 17.1239 7.37174 17.2015 7.30524 17.2615C7.23874 17.3215 7.17065 17.3511 7.1002 17.3511H6.13595V16.1135H7.1002C7.17065 16.1135 7.23874 16.1431 7.30524 16.2007C7.37174 16.2583 7.42715 16.3343 7.47149 16.4271C7.51661 16.5207 7.53799 16.6216 7.53799 16.7296C7.53799 16.8336 7.51582 16.9335 7.47149 17.0287Z" fill="#FF4343"></path>
<path id="Vector_2" d="M11.735 16.0424C11.5925 15.8616 11.4183 15.7207 11.2117 15.6199C11.0043 15.5191 10.7676 15.4688 10.5023 15.4688H9.17789C9.08209 15.4688 9.00134 15.5015 8.93643 15.5671C8.8723 15.6327 8.83984 15.7136 8.83984 15.8104V19.0471C8.83984 19.1439 8.8723 19.2256 8.93643 19.2904C9.00134 19.356 9.08209 19.3887 9.17789 19.3887H10.5023C10.861 19.3887 11.1626 19.3016 11.4088 19.1256C11.655 18.9504 11.8418 18.7144 11.9717 18.4176C12.1007 18.1208 12.1656 17.7912 12.1656 17.4288C12.1656 17.16 12.1292 16.9072 12.0572 16.6704C11.9851 16.4336 11.8775 16.2232 11.735 16.0424ZM11.3415 18.0807C11.2734 18.2807 11.165 18.4408 11.0177 18.5624C10.8697 18.684 10.6797 18.7447 10.4469 18.7447H9.53255V16.1128H10.4469C10.6203 16.1128 10.7699 16.1479 10.895 16.2191C11.0209 16.2895 11.1238 16.3864 11.2061 16.5072C11.2877 16.6288 11.3471 16.7687 11.3866 16.9271C11.4254 17.0863 11.4444 17.2527 11.4444 17.4279C11.4444 17.6639 11.4104 17.8807 11.3415 18.0807Z" fill="#FF4343"></path>
<path id="Vector_3" d="M14.9408 15.4688H13.1398C13.044 15.4688 12.9633 15.5015 12.8983 15.5671C12.8342 15.6327 12.8018 15.7136 12.8018 15.8104V19.0471C12.8018 19.1439 12.8342 19.2256 12.8983 19.2904C12.9633 19.356 13.0472 19.3887 13.1501 19.3887C13.2427 19.3887 13.3235 19.356 13.3916 19.2904C13.4604 19.2248 13.4945 19.1439 13.4945 19.0471V17.7423H14.6915C14.7873 17.7423 14.868 17.7103 14.9329 17.6471C14.9971 17.5831 15.0295 17.5111 15.0295 17.4287C15.0295 17.3319 14.9971 17.2527 14.9329 17.1911C14.868 17.1295 14.7873 17.0991 14.6915 17.0991H13.4945V16.1135H14.9408C15.0366 16.1135 15.1174 16.0816 15.1823 16.0184C15.2464 15.9544 15.2789 15.8823 15.2789 15.7999C15.2789 15.7023 15.2464 15.6231 15.1823 15.5615C15.1174 15.4999 15.0366 15.4688 14.9408 15.4688Z" fill="#FF4343"></path>
<path id="Vector_4" d="M3.19042 22.1996C2.41458 22.1996 1.78125 21.5596 1.78125 20.7756V13.6236C1.78125 12.8396 2.41458 12.1996 3.19042 12.1996H8.36792C8.74792 12.1996 9.10417 12.3436 9.36542 12.6156L9.68208 12.9356C9.72167 12.9756 9.77708 12.9996 9.84042 12.9996H16.4271H16.8229V5.66361C16.8229 5.34361 16.7596 5.03961 16.6329 4.75961C16.6329 4.72761 16.6171 4.69561 16.5933 4.66361C16.5696 4.60761 16.5379 4.55961 16.5062 4.50361C16.4746 4.44761 16.4429 4.39961 16.4033 4.34361C16.3321 4.23961 16.2529 4.14361 16.1658 4.04761L13.4108 1.26361C13.2129 1.07161 12.9833 0.911609 12.7458 0.807609C12.445 0.671609 12.1442 0.599609 11.8117 0.599609H1.7575C1.11625 0.599609 0.59375 1.12761 0.59375 1.77561V22.2236C0.59375 22.8716 1.11625 23.3996 1.7575 23.3996H15.6592C16.3004 23.3996 16.8229 22.8716 16.8229 22.2236V22.1996H16.4271H3.19042ZM12.8646 1.32761C12.8646 1.32761 12.8725 1.32761 12.8725 1.33561C12.9675 1.39961 13.0467 1.46361 13.1258 1.55161L15.8808 4.33561C15.9679 4.41561 16.0312 4.49561 16.0946 4.59161C16.1025 4.59161 16.1025 4.59961 16.1025 4.59961H13.4583C13.1337 4.59961 12.8646 4.32761 12.8646 3.99961V1.32761ZM3.16667 2.99961H10.2917C10.4025 2.99961 10.4896 3.08761 10.4896 3.19961C10.4896 3.31161 10.4025 3.39961 10.2917 3.39961H3.16667C3.05583 3.39961 2.96875 3.31161 2.96875 3.19961C2.96875 3.08761 3.05583 2.99961 3.16667 2.99961ZM3.16667 5.39961H10.2917C10.4025 5.39961 10.4896 5.48761 10.4896 5.59961C10.4896 5.71161 10.4025 5.79961 10.2917 5.79961H3.16667C3.05583 5.79961 2.96875 5.71161 2.96875 5.59961C2.96875 5.48761 3.05583 5.39961 3.16667 5.39961ZM3.16667 7.79961H14.25C14.3608 7.79961 14.4479 7.88761 14.4479 7.99961C14.4479 8.11161 14.3608 8.19961 14.25 8.19961H3.16667C3.05583 8.19961 2.96875 8.11161 2.96875 7.99961C2.96875 7.88761 3.05583 7.79961 3.16667 7.79961ZM3.16667 10.1996H14.25C14.3608 10.1996 14.4479 10.2876 14.4479 10.3996C14.4479 10.5116 14.3608 10.5996 14.25 10.5996H3.16667C3.05583 10.5996 2.96875 10.5116 2.96875 10.3996C2.96875 10.2876 3.05583 10.1996 3.16667 10.1996Z" fill="#FF4343"></path>
<path id="Vector_5" d="M17.3926 13.3996H16.8226H9.84009C9.67384 13.3996 9.51551 13.3356 9.40467 13.2156L9.08801 12.8956C8.89801 12.7036 8.63676 12.5996 8.36759 12.5996H3.19009C2.62801 12.5996 2.17676 13.0556 2.17676 13.6236V20.7756C2.17676 21.3436 2.62801 21.7996 3.19009 21.7996H16.8226H17.3926C17.9547 21.7996 18.4059 21.3436 18.4059 20.7756V14.4236C18.4059 13.8556 17.9547 13.3996 17.3926 13.3996ZM18.0101 20.7756C18.0101 21.1196 17.733 21.3996 17.3926 21.3996H16.6247H3.19009C2.84967 21.3996 2.57259 21.1196 2.57259 20.7756V13.6236C2.57259 13.2796 2.84967 12.9996 3.19009 12.9996H8.36759C8.53384 12.9996 8.69217 13.0636 8.80301 13.1836L9.11967 13.5036C9.30967 13.6956 9.57092 13.7996 9.84009 13.7996H16.6247H17.3926C17.733 13.7996 18.0101 14.0796 18.0101 14.4236V20.7756Z" fill="#FF4343"></path>
</g>
</g>
</g>
<defs>
<clipPath id="clip0_192_555">
<rect width="19" height="24" fill="white"></rect>
</clipPath>
</defs>
</svg>
