<svg width="16" height="16" viewBox="0 0 16 16" fill="none" xmlns="http://www.w3.org/2000/svg">
<g id="noun-print-4972277 1" clip-path="url('#clip0_192_180')">
<path id="Vector" fill-rule="evenodd" clip-rule="evenodd" d="M15.4407 3.34434H14.3859H1.61439H0.559563C0.334978 3.34434 0.152344 3.52698 0.152344 3.75156V12.2495C0.152344 12.4741 0.334978 12.6567 0.559563 12.6567H1.61439V10.0382C1.61439 9.36991 2.158 8.8263 2.82629 8.8263H13.174C13.8423 8.8263 14.3859 9.36991 14.3859 10.0382V12.6565H15.4407C15.6653 12.6565 15.848 12.4739 15.848 12.2493V3.75137C15.848 3.52698 15.6653 3.34434 15.4407 3.34434ZM13.8255 5.61849H11.3541C11.0442 5.61849 10.7933 5.36756 10.7933 5.05771C10.7933 4.74786 11.0444 4.49693 11.3541 4.49693H13.8253C14.1352 4.49693 14.3861 4.74805 14.3861 5.05771C14.3861 5.36737 14.135 5.61849 13.8255 5.61849ZM13.2647 10.0382V13.7779V15.7576C13.2647 15.8058 13.2224 15.8481 13.1742 15.8481H2.82629C2.7781 15.8481 2.73576 15.8058 2.73576 15.7576V13.7779V10.0382C2.73576 9.99 2.7781 9.94766 2.82629 9.94766H13.1742C13.2224 9.94766 13.2647 9.9902 13.2647 10.0382ZM13.2651 2.22298H2.73576V0.672539C2.73576 0.385905 2.96893 0.152344 3.25595 0.152344H12.7453C13.032 0.152344 13.2655 0.385709 13.2655 0.672539V2.22298H13.2651Z" fill="#0074DF"></path>
</g>
<defs>
<clipPath id="clip0_192_180">
<rect width="16" height="16" fill="white"></rect>
</clipPath>
</defs>
</svg>
