<svg width="20" height="20" viewBox="0 0 20 20" fill="none" xmlns="http://www.w3.org/2000/svg">
<g id="noun-print-4972277 1" clip-path="url('#clip0_190_101')">
<path id="Vector" fill-rule="evenodd" clip-rule="evenodd" d="M19.3009 4.18043H17.9824H2.01799H0.699454C0.418722 4.18043 0.19043 4.40872 0.19043 4.68945V15.3119C0.19043 15.5926 0.418722 15.8209 0.699454 15.8209H2.01799V12.5477C2.01799 11.7124 2.6975 11.0329 3.53287 11.0329H16.4675C17.3029 11.0329 17.9824 11.7124 17.9824 12.5477V15.8207H19.3009C19.5816 15.8207 19.8099 15.5924 19.8099 15.3117V4.68921C19.8099 4.40872 19.5816 4.18043 19.3009 4.18043ZM17.2819 7.02311H14.1926C13.8053 7.02311 13.4916 6.70945 13.4916 6.32214C13.4916 5.93482 13.8056 5.62116 14.1926 5.62116H17.2816C17.669 5.62116 17.9826 5.93506 17.9826 6.32214C17.9826 6.70921 17.6687 7.02311 17.2819 7.02311ZM16.5809 12.5477V17.2224V19.697C16.5809 19.7573 16.528 19.8102 16.4677 19.8102H3.53287C3.47262 19.8102 3.4197 19.7573 3.4197 19.697V17.2224V12.5477C3.4197 12.4875 3.47262 12.4346 3.53287 12.4346H16.4677C16.528 12.4346 16.5809 12.4877 16.5809 12.5477ZM16.5814 2.77872H3.4197V0.840673C3.4197 0.482381 3.71116 0.19043 4.06994 0.19043H15.9316C16.2899 0.19043 16.5819 0.482137 16.5819 0.840673V2.77872H16.5814Z" fill="#0074DF"></path>
</g>
<defs>
<clipPath id="clip0_190_101">
<rect width="20" height="20" fill="white"></rect>
</clipPath>
</defs>
</svg>
